<svg width="491" height="445" viewBox="0 0 491 445" fill="none" xmlns="http://www.w3.org/2000/svg">
<rect width="491" height="445" rx="5" fill="#BFD2F8"/>
<rect width="491" height="445" rx="5" fill="black" fill-opacity="0.2"/>
<path d="M0 395H491V440C491 442.761 488.761 445 486 445H4.99999C2.23856 445 0 442.761 0 440V395Z" fill="#BFD2F8"/>
<path d="M0 395H491V440C491 442.761 488.761 445 486 445H4.99999C2.23856 445 0 442.761 0 440V395Z" fill="black" fill-opacity="0.2"/>
<path d="M220.223 414.28C221.172 414.28 221.993 414.461 222.687 414.824C223.38 415.176 223.967 415.699 224.447 416.392L223.295 417.496C222.889 416.877 222.431 416.435 221.919 416.168C221.417 415.891 220.82 415.752 220.127 415.752C219.348 415.752 218.783 415.901 218.431 416.2C218.079 416.499 217.903 416.861 217.903 417.288C217.903 417.619 218.015 417.907 218.239 418.152C218.473 418.397 218.905 418.589 219.535 418.728L221.679 419.208C222.692 419.443 223.412 419.789 223.839 420.248C224.276 420.696 224.495 421.272 224.495 421.976C224.495 422.627 224.319 423.192 223.967 423.672C223.615 424.141 223.124 424.509 222.495 424.776C221.865 425.032 221.135 425.16 220.303 425.16C219.183 425.16 218.228 424.952 217.439 424.536C216.649 424.109 216.041 423.581 215.615 422.952L216.799 421.768C217.129 422.333 217.593 422.797 218.191 423.16C218.799 423.512 219.519 423.688 220.351 423.688C221.087 423.688 221.663 423.56 222.079 423.304C222.505 423.037 222.719 422.659 222.719 422.168C222.719 421.869 222.612 421.603 222.399 421.368C222.196 421.123 221.812 420.936 221.247 420.808L218.927 420.28C217.967 420.077 217.257 419.741 216.799 419.272C216.34 418.803 216.111 418.216 216.111 417.512C216.111 416.915 216.276 416.371 216.607 415.88C216.937 415.389 217.407 415 218.015 414.712C218.633 414.424 219.369 414.28 220.223 414.28ZM235.304 414.44V420.952C235.304 422.349 234.936 423.4 234.2 424.104C233.464 424.808 232.392 425.16 230.984 425.16C229.598 425.16 228.531 424.808 227.784 424.104C227.048 423.4 226.68 422.349 226.68 420.952V414.44H228.392V420.744C228.392 421.747 228.6 422.488 229.016 422.968C229.443 423.437 230.099 423.672 230.984 423.672C231.88 423.672 232.536 423.437 232.952 422.968C233.379 422.488 233.592 421.747 233.592 420.744V414.44H235.304ZM238.232 425V414.44H242.392C243.661 414.44 244.589 414.696 245.176 415.208C245.763 415.72 246.056 416.429 246.056 417.336C246.056 417.891 245.896 418.387 245.576 418.824C245.256 419.251 244.787 419.523 244.168 419.64V419.656C244.851 419.773 245.379 420.056 245.752 420.504C246.136 420.952 246.328 421.475 246.328 422.072C246.328 422.979 245.997 423.693 245.336 424.216C244.675 424.739 243.715 425 242.456 425H238.232ZM239.912 418.984H242.264C243.608 418.984 244.28 418.467 244.28 417.432C244.28 416.397 243.608 415.88 242.264 415.88H239.912V418.984ZM239.912 423.576H242.536C243.208 423.576 243.709 423.437 244.04 423.16C244.381 422.883 244.552 422.493 244.552 421.992C244.552 421.491 244.381 421.101 244.04 420.824C243.709 420.547 243.208 420.408 242.536 420.408H239.912V423.576ZM259.626 414.44V425H258.058V418.888L258.17 415.976H258.154L254.938 425H253.514L250.298 415.976H250.282L250.41 418.888V425H248.826V414.44H251.37L253.498 420.552L254.234 423.064H254.266L255.018 420.552L257.13 414.44H259.626ZM264.475 414.44V425H262.763V414.44H264.475ZM275.463 414.44V415.912H271.847V425H270.135V415.912H266.519V414.44H275.463Z" fill="#1F2B6C"/>
<rect y="51" width="245" height="50" fill="#1F2B6C"/>
<path d="M21.728 83V72.44H29.136V73.64H23.008V77.048H27.776V78.248H23.008V81.8H29.376V83H21.728ZM31.6911 83V75H32.8111L32.8911 76.248C33.1791 75.7573 33.5525 75.4 34.0111 75.176C34.4805 74.952 34.9605 74.84 35.4511 74.84C36.0165 74.84 36.5498 74.968 37.0511 75.224C37.5525 75.48 37.9365 75.8747 38.2031 76.408C38.3738 76.0453 38.6138 75.752 38.9231 75.528C39.2325 75.2933 39.5685 75.1227 39.9311 75.016C40.3045 74.8987 40.6565 74.84 40.9871 74.84C41.4991 74.84 41.9845 74.9467 42.4431 75.16C42.9125 75.3733 43.2965 75.704 43.5951 76.152C43.8938 76.6 44.0431 77.176 44.0431 77.88V83H42.7631V78.008C42.7631 77.2827 42.5818 76.76 42.2191 76.44C41.8565 76.12 41.4085 75.96 40.8751 75.96C40.4591 75.96 40.0698 76.0613 39.7071 76.264C39.3445 76.4667 39.0511 76.7653 38.8271 77.16C38.6138 77.5547 38.5071 78.04 38.5071 78.616V83H37.2271V78.008C37.2271 77.2827 37.0458 76.76 36.6831 76.44C36.3205 76.12 35.8725 75.96 35.3391 75.96C34.9871 75.96 34.6245 76.056 34.2511 76.248C33.8885 76.4293 33.5845 76.7227 33.3391 77.128C33.0938 77.5333 32.9711 78.0667 32.9711 78.728V83H31.6911ZM51.6131 77.832C51.6131 77.2347 51.4531 76.776 51.1331 76.456C50.8131 76.1253 50.3598 75.96 49.7731 75.96C49.2185 75.96 48.7491 76.0827 48.3651 76.328C47.9811 76.5627 47.6985 76.9467 47.5171 77.48L46.4771 76.84C46.6905 76.2427 47.0851 75.7627 47.6611 75.4C48.2371 75.0267 48.9518 74.84 49.8051 74.84C50.3811 74.84 50.9038 74.9413 51.3731 75.144C51.8425 75.336 52.2105 75.6347 52.4771 76.04C52.7545 76.4347 52.8931 76.9467 52.8931 77.576V81.448C52.8931 81.832 53.0958 82.024 53.5011 82.024C53.7038 82.024 53.9011 81.9973 54.0931 81.944L54.0291 82.952C53.8158 83.0587 53.5385 83.112 53.1971 83.112C52.8025 83.112 52.4611 83.016 52.1731 82.824C51.8958 82.632 51.7145 82.3387 51.6291 81.944C51.3518 82.36 50.9731 82.6693 50.4931 82.872C50.0131 83.064 49.5385 83.16 49.0691 83.16C48.5998 83.16 48.1625 83.08 47.7571 82.92C47.3518 82.76 47.0265 82.52 46.7811 82.2C46.5465 81.8693 46.4291 81.464 46.4291 80.984C46.4291 80.3867 46.6265 79.896 47.0211 79.512C47.4265 79.1173 47.9865 78.8507 48.7011 78.712L51.6131 78.136V77.832ZM47.7411 80.92C47.7411 81.2507 47.8691 81.5227 48.1251 81.736C48.3918 81.9387 48.7651 82.04 49.2451 82.04C49.6611 82.04 50.0451 81.9707 50.3971 81.832C50.7598 81.6827 51.0531 81.464 51.2771 81.176C51.5011 80.8773 51.6131 80.4987 51.6131 80.04V79.192L49.2931 79.672C48.7705 79.7787 48.3811 79.928 48.1251 80.12C47.8691 80.312 47.7411 80.5787 47.7411 80.92ZM56.6436 73.464C56.3556 73.464 56.121 73.3787 55.9396 73.208C55.769 73.0267 55.6836 72.792 55.6836 72.504C55.6836 72.216 55.769 71.9867 55.9396 71.816C56.121 71.6347 56.3556 71.544 56.6436 71.544C56.9316 71.544 57.161 71.6347 57.3316 71.816C57.513 71.9867 57.6036 72.216 57.6036 72.504C57.6036 72.792 57.513 73.0267 57.3316 73.208C57.161 73.3787 56.9316 73.464 56.6436 73.464ZM57.2836 75V83H56.0036V75H57.2836ZM61.4696 71.32V80.968C61.4696 81.3733 61.5443 81.656 61.6936 81.816C61.843 81.9653 62.083 82.04 62.4136 82.04C62.627 82.04 62.803 82.024 62.9416 81.992C63.0803 81.96 63.267 81.9013 63.5016 81.816L63.2936 82.936C62.9416 83.0853 62.547 83.16 62.1096 83.16C60.8296 83.16 60.1896 82.4453 60.1896 81.016V71.32H61.4696Z" fill="#FCFEFE"/>
<path d="M0 5C0 2.23858 2.23858 0 5 0H245V50H0V5Z" fill="#1F2B6C"/>
<path d="M30.016 21.44V32H28.432L24.016 24.928L22.896 22.944H22.88L22.944 24.544V32H21.728V21.44H23.312L27.712 28.48L28.848 30.512H28.864L28.8 28.896V21.44H30.016ZM37.8163 26.832C37.8163 26.2347 37.6563 25.776 37.3363 25.456C37.0163 25.1253 36.5629 24.96 35.9763 24.96C35.4216 24.96 34.9523 25.0827 34.5683 25.328C34.1843 25.5627 33.9016 25.9467 33.7203 26.48L32.6803 25.84C32.8936 25.2427 33.2883 24.7627 33.8643 24.4C34.4403 24.0267 35.1549 23.84 36.0083 23.84C36.5843 23.84 37.1069 23.9413 37.5763 24.144C38.0456 24.336 38.4136 24.6347 38.6803 25.04C38.9576 25.4347 39.0963 25.9467 39.0963 26.576V30.448C39.0963 30.832 39.2989 31.024 39.7043 31.024C39.9069 31.024 40.1043 30.9973 40.2963 30.944L40.2323 31.952C40.0189 32.0587 39.7416 32.112 39.4003 32.112C39.0056 32.112 38.6643 32.016 38.3763 31.824C38.0989 31.632 37.9176 31.3387 37.8323 30.944C37.5549 31.36 37.1763 31.6693 36.6963 31.872C36.2163 32.064 35.7416 32.16 35.2723 32.16C34.8029 32.16 34.3656 32.08 33.9603 31.92C33.5549 31.76 33.2296 31.52 32.9843 31.2C32.7496 30.8693 32.6323 30.464 32.6323 29.984C32.6323 29.3867 32.8296 28.896 33.2243 28.512C33.6296 28.1173 34.1896 27.8507 34.9043 27.712L37.8163 27.136V26.832ZM33.9443 29.92C33.9443 30.2507 34.0723 30.5227 34.3283 30.736C34.5949 30.9387 34.9683 31.04 35.4483 31.04C35.8643 31.04 36.2483 30.9707 36.6003 30.832C36.9629 30.6827 37.2563 30.464 37.4803 30.176C37.7043 29.8773 37.8163 29.4987 37.8163 29.04V28.192L35.4963 28.672C34.9736 28.7787 34.5843 28.928 34.3283 29.12C34.0723 29.312 33.9443 29.5787 33.9443 29.92ZM42.2068 32V24H43.3268L43.4068 25.248C43.6948 24.7573 44.0681 24.4 44.5268 24.176C44.9961 23.952 45.4761 23.84 45.9668 23.84C46.5321 23.84 47.0654 23.968 47.5668 24.224C48.0681 24.48 48.4521 24.8747 48.7188 25.408C48.8894 25.0453 49.1294 24.752 49.4388 24.528C49.7481 24.2933 50.0841 24.1227 50.4468 24.016C50.8201 23.8987 51.1721 23.84 51.5028 23.84C52.0148 23.84 52.5001 23.9467 52.9588 24.16C53.4281 24.3733 53.8121 24.704 54.1108 25.152C54.4094 25.6 54.5588 26.176 54.5588 26.88V32H53.2788V27.008C53.2788 26.2827 53.0974 25.76 52.7348 25.44C52.3721 25.12 51.9241 24.96 51.3908 24.96C50.9748 24.96 50.5854 25.0613 50.2228 25.264C49.8601 25.4667 49.5668 25.7653 49.3428 26.16C49.1294 26.5547 49.0228 27.04 49.0228 27.616V32H47.7428V27.008C47.7428 26.2827 47.5614 25.76 47.1988 25.44C46.8361 25.12 46.3881 24.96 45.8548 24.96C45.5028 24.96 45.1401 25.056 44.7668 25.248C44.4041 25.4293 44.1001 25.7227 43.8548 26.128C43.6094 26.5333 43.4868 27.0667 43.4868 27.728V32H42.2068ZM60.8008 32.16C60.0434 32.16 59.3661 31.9947 58.7688 31.664C58.1821 31.3333 57.7234 30.8587 57.3928 30.24C57.0621 29.6107 56.8968 28.864 56.8968 28C56.8968 27.136 57.0621 26.3947 57.3928 25.776C57.7234 25.1467 58.1768 24.6667 58.7528 24.336C59.3288 24.0053 59.9848 23.84 60.7208 23.84C61.4674 23.84 62.1021 24 62.6248 24.32C63.1581 24.64 63.5634 25.0773 63.8408 25.632C64.1181 26.176 64.2568 26.7893 64.2568 27.472C64.2568 27.6533 64.2514 27.8187 64.2408 27.968C64.2301 28.1173 64.2141 28.2507 64.1927 28.368H58.1608C58.2248 29.2107 58.4861 29.8667 58.9448 30.336C59.4034 30.8053 60.0114 31.04 60.7688 31.04C61.3554 31.04 61.8301 30.928 62.1928 30.704C62.5661 30.48 62.8648 30.176 63.0888 29.792L64.0968 30.384C63.7981 30.928 63.3661 31.36 62.8008 31.68C62.2461 32 61.5794 32.16 60.8008 32.16ZM60.6888 24.96C60.0168 24.96 59.4621 25.1627 59.0248 25.568C58.5981 25.9627 58.3261 26.5173 58.2088 27.232H62.9768C62.9448 26.5067 62.7208 25.9467 62.3048 25.552C61.8888 25.1573 61.3501 24.96 60.6888 24.96Z" fill="#FCFEFE"/>
<rect y="204" width="491" height="190" fill="#1F2B6C"/>
<path d="M31.936 225.44V236H30.72V229.36L30.864 226.576H30.848L27.376 236H26.288L22.816 226.576H22.8L22.944 229.36V236H21.728V225.44H23.696L26.016 231.856L26.816 234.496H26.848L27.664 231.872L29.968 225.44H31.936ZM38.3633 236.16C37.6059 236.16 36.9286 235.995 36.3313 235.664C35.7446 235.333 35.2859 234.859 34.9553 234.24C34.6246 233.611 34.4593 232.864 34.4593 232C34.4593 231.136 34.6246 230.395 34.9553 229.776C35.2859 229.147 35.7393 228.667 36.3153 228.336C36.8913 228.005 37.5473 227.84 38.2833 227.84C39.0299 227.84 39.6646 228 40.1873 228.32C40.7206 228.64 41.1259 229.077 41.4033 229.632C41.6806 230.176 41.8193 230.789 41.8193 231.472C41.8193 231.653 41.8139 231.819 41.8033 231.968C41.7926 232.117 41.7766 232.251 41.7552 232.368H35.7233C35.7873 233.211 36.0486 233.867 36.5073 234.336C36.9659 234.805 37.5739 235.04 38.3313 235.04C38.9179 235.04 39.3926 234.928 39.7553 234.704C40.1286 234.48 40.4273 234.176 40.6513 233.792L41.6593 234.384C41.3606 234.928 40.9286 235.36 40.3633 235.68C39.8086 236 39.1419 236.16 38.3633 236.16ZM38.2513 228.96C37.5793 228.96 37.0246 229.163 36.5873 229.568C36.1606 229.963 35.8886 230.517 35.7713 231.232H40.5393C40.5073 230.507 40.2833 229.947 39.8673 229.552C39.4513 229.157 38.9126 228.96 38.2513 228.96ZM47.1336 236.16C46.355 236.16 45.635 235.995 44.9736 235.664C44.323 235.333 43.8216 234.864 43.4696 234.256L44.5576 233.472C44.7923 233.963 45.1336 234.347 45.5816 234.624C46.0403 234.901 46.5896 235.04 47.2296 235.04C47.795 235.04 48.2376 234.933 48.5576 234.72C48.8776 234.496 49.0376 234.208 49.0376 233.856C49.0376 233.632 48.963 233.429 48.8136 233.248C48.675 233.056 48.403 232.917 47.9976 232.832L46.0776 232.432C45.299 232.272 44.739 232.005 44.3976 231.632C44.067 231.259 43.9016 230.795 43.9016 230.24C43.9016 229.803 44.0243 229.403 44.2696 229.04C44.5256 228.677 44.883 228.389 45.3416 228.176C45.811 227.952 46.3603 227.84 46.9896 227.84C47.779 227.84 48.4456 227.995 48.9896 228.304C49.5336 228.613 49.939 229.051 50.2056 229.616L49.1336 230.32C48.9523 229.851 48.659 229.509 48.2536 229.296C47.8483 229.072 47.427 228.96 46.9896 228.96C46.4136 228.96 45.9656 229.077 45.6456 229.312C45.3256 229.547 45.1656 229.84 45.1656 230.192C45.1656 230.427 45.2456 230.645 45.4056 230.848C45.5656 231.04 45.8643 231.179 46.3016 231.264L48.3016 231.68C49.0483 231.829 49.571 232.075 49.8696 232.416C50.1683 232.757 50.3176 233.173 50.3176 233.664C50.3176 234.421 50.0243 235.029 49.4376 235.488C48.851 235.936 48.083 236.16 47.1336 236.16ZM55.5711 236.16C54.7925 236.16 54.0725 235.995 53.4111 235.664C52.7605 235.333 52.2591 234.864 51.9071 234.256L52.9951 233.472C53.2298 233.963 53.5711 234.347 54.0191 234.624C54.4778 234.901 55.0271 235.04 55.6671 235.04C56.2325 235.04 56.6751 234.933 56.9951 234.72C57.3151 234.496 57.4751 234.208 57.4751 233.856C57.4751 233.632 57.4005 233.429 57.2511 233.248C57.1125 233.056 56.8405 232.917 56.4351 232.832L54.5151 232.432C53.7365 232.272 53.1765 232.005 52.8351 231.632C52.5045 231.259 52.3391 230.795 52.3391 230.24C52.3391 229.803 52.4618 229.403 52.7071 229.04C52.9631 228.677 53.3205 228.389 53.7791 228.176C54.2485 227.952 54.7978 227.84 55.4271 227.84C56.2165 227.84 56.8831 227.995 57.4271 228.304C57.9711 228.613 58.3765 229.051 58.6431 229.616L57.5711 230.32C57.3898 229.851 57.0965 229.509 56.6911 229.296C56.2858 229.072 55.8645 228.96 55.4271 228.96C54.8511 228.96 54.4031 229.077 54.0831 229.312C53.7631 229.547 53.6031 229.84 53.6031 230.192C53.6031 230.427 53.6831 230.645 53.8431 230.848C54.0031 231.04 54.3018 231.179 54.7391 231.264L56.7391 231.68C57.4858 231.829 58.0085 232.075 58.3071 232.416C58.6058 232.757 58.7551 233.173 58.7551 233.664C58.7551 234.421 58.4618 235.029 57.8751 235.488C57.2885 235.936 56.5205 236.16 55.5711 236.16ZM65.8006 230.832C65.8006 230.235 65.6406 229.776 65.3206 229.456C65.0006 229.125 64.5473 228.96 63.9606 228.96C63.406 228.96 62.9366 229.083 62.5526 229.328C62.1686 229.563 61.886 229.947 61.7046 230.48L60.6646 229.84C60.878 229.243 61.2726 228.763 61.8486 228.4C62.4246 228.027 63.1393 227.84 63.9926 227.84C64.5686 227.84 65.0913 227.941 65.5606 228.144C66.03 228.336 66.398 228.635 66.6646 229.04C66.942 229.435 67.0806 229.947 67.0806 230.576V234.448C67.0806 234.832 67.2833 235.024 67.6886 235.024C67.8913 235.024 68.0886 234.997 68.2806 234.944L68.2166 235.952C68.0033 236.059 67.726 236.112 67.3846 236.112C66.99 236.112 66.6486 236.016 66.3606 235.824C66.0833 235.632 65.902 235.339 65.8166 234.944C65.5393 235.36 65.1606 235.669 64.6806 235.872C64.2006 236.064 63.726 236.16 63.2566 236.16C62.7873 236.16 62.35 236.08 61.9446 235.92C61.5393 235.76 61.214 235.52 60.9686 235.2C60.734 234.869 60.6166 234.464 60.6166 233.984C60.6166 233.387 60.814 232.896 61.2086 232.512C61.614 232.117 62.174 231.851 62.8886 231.712L65.8006 231.136V230.832ZM61.9286 233.92C61.9286 234.251 62.0566 234.523 62.3126 234.736C62.5793 234.939 62.9526 235.04 63.4326 235.04C63.8486 235.04 64.2326 234.971 64.5846 234.832C64.9473 234.683 65.2406 234.464 65.4646 234.176C65.6886 233.877 65.8006 233.499 65.8006 233.04V232.192L63.4806 232.672C62.958 232.779 62.5686 232.928 62.3126 233.12C62.0566 233.312 61.9286 233.579 61.9286 233.92ZM74.4951 234.976C75.2525 234.976 75.8445 235.152 76.2711 235.504C76.6978 235.845 76.9111 236.304 76.9111 236.88C76.9111 237.403 76.7351 237.856 76.3831 238.24C76.0418 238.624 75.5778 238.917 74.9911 239.12C74.4151 239.333 73.7645 239.44 73.0391 239.44C71.7805 239.44 70.8365 239.227 70.2071 238.8C69.5885 238.373 69.2791 237.861 69.2791 237.264C69.2791 236.901 69.3805 236.571 69.5831 236.272C69.7858 235.973 70.1218 235.76 70.5911 235.632C70.3351 235.515 70.1271 235.355 69.9671 235.152C69.8071 234.939 69.7271 234.656 69.7271 234.304C69.7271 233.973 69.8231 233.675 70.0151 233.408C70.2071 233.131 70.4951 232.917 70.8791 232.768C70.4738 232.533 70.1645 232.224 69.9511 231.84C69.7378 231.456 69.6311 231.024 69.6311 230.544C69.6311 230.011 69.7698 229.541 70.0471 229.136C70.3351 228.731 70.7245 228.416 71.2151 228.192C71.7058 227.957 72.2711 227.84 72.9111 227.84C73.5831 227.84 74.1858 227.973 74.7191 228.24C74.7938 227.707 75.0285 227.291 75.4231 226.992C75.8285 226.683 76.3031 226.528 76.8471 226.528H76.9271L77.2151 227.664H77.1031C76.6125 227.664 76.2285 227.755 75.9511 227.936C75.6738 228.117 75.5191 228.4 75.4871 228.784C75.9565 229.275 76.1911 229.861 76.1911 230.544C76.1911 231.067 76.0525 231.536 75.7751 231.952C75.4978 232.357 75.1085 232.677 74.6071 232.912C74.1165 233.136 73.5511 233.248 72.9111 233.248C72.5165 233.248 72.1485 233.211 71.8071 233.136C71.4871 233.232 71.2578 233.365 71.1191 233.536C70.9805 233.707 70.9111 233.893 70.9111 234.096C70.9111 234.683 71.3271 234.976 72.1591 234.976H74.4951ZM72.9111 228.88C72.3565 228.88 71.8925 229.035 71.5191 229.344C71.1458 229.643 70.9591 230.043 70.9591 230.544C70.9591 231.035 71.1458 231.435 71.5191 231.744C71.8925 232.053 72.3565 232.208 72.9111 232.208C73.4658 232.208 73.9298 232.053 74.3031 231.744C74.6765 231.435 74.8631 231.035 74.8631 230.544C74.8631 230.043 74.6765 229.643 74.3031 229.344C73.9298 229.035 73.4658 228.88 72.9111 228.88ZM73.0231 238.368C73.9511 238.368 74.6338 238.229 75.0711 237.952C75.5085 237.685 75.7271 237.376 75.7271 237.024C75.7271 236.736 75.6098 236.507 75.3751 236.336C75.1511 236.165 74.7405 236.08 74.1431 236.08H71.6791C71.3378 236.08 71.0498 236.165 70.8151 236.336C70.5805 236.517 70.4631 236.763 70.4631 237.072C70.4631 237.467 70.6871 237.781 71.1351 238.016C71.5938 238.251 72.2231 238.368 73.0231 238.368ZM82.0508 236.16C81.2934 236.16 80.6161 235.995 80.0188 235.664C79.4321 235.333 78.9734 234.859 78.6428 234.24C78.3121 233.611 78.1468 232.864 78.1468 232C78.1468 231.136 78.3121 230.395 78.6428 229.776C78.9734 229.147 79.4268 228.667 80.0028 228.336C80.5788 228.005 81.2348 227.84 81.9708 227.84C82.7174 227.84 83.3521 228 83.8748 228.32C84.4081 228.64 84.8134 229.077 85.0908 229.632C85.3681 230.176 85.5068 230.789 85.5068 231.472C85.5068 231.653 85.5014 231.819 85.4908 231.968C85.4801 232.117 85.4641 232.251 85.4427 232.368H79.4108C79.4748 233.211 79.7361 233.867 80.1948 234.336C80.6534 234.805 81.2614 235.04 82.0188 235.04C82.6054 235.04 83.0801 234.928 83.4428 234.704C83.8161 234.48 84.1148 234.176 84.3388 233.792L85.3468 234.384C85.0481 234.928 84.6161 235.36 84.0508 235.68C83.4961 236 82.8294 236.16 82.0508 236.16ZM81.9388 228.96C81.2668 228.96 80.7121 229.163 80.2748 229.568C79.8481 229.963 79.5761 230.517 79.4588 231.232H84.2268C84.1948 230.507 83.9708 229.947 83.5548 229.552C83.1388 229.157 82.6001 228.96 81.9388 228.96Z" fill="#FCFEFE"/>
<rect x="246" y="51" width="245" height="50" fill="#1F2B6C"/>
<path d="M271.456 72.44C272.171 72.44 272.789 72.5733 273.312 72.84C273.845 73.096 274.261 73.464 274.56 73.944C274.859 74.424 275.008 74.9947 275.008 75.656C275.008 76.3173 274.859 76.888 274.56 77.368C274.261 77.848 273.845 78.2213 273.312 78.488C272.789 78.744 272.171 78.872 271.456 78.872H269.008V83H267.728V72.44H271.456ZM271.264 77.672C272.096 77.672 272.704 77.5013 273.088 77.16C273.472 76.808 273.664 76.3067 273.664 75.656C273.664 74.9947 273.472 74.4933 273.088 74.152C272.704 73.8107 272.096 73.64 271.264 73.64H269.008V77.672H271.264ZM277.254 83V71.32H278.534V76.2C278.811 75.72 279.179 75.3733 279.638 75.16C280.096 74.9467 280.598 74.84 281.142 74.84C281.718 74.84 282.24 74.952 282.71 75.176C283.179 75.3893 283.552 75.72 283.83 76.168C284.118 76.616 284.262 77.1867 284.262 77.88V83H282.982V78.328C282.982 77.4427 282.79 76.8293 282.406 76.488C282.032 76.136 281.568 75.96 281.014 75.96C280.63 75.96 280.246 76.0507 279.862 76.232C279.478 76.4133 279.158 76.712 278.902 77.128C278.656 77.5333 278.534 78.0773 278.534 78.76V83H277.254ZM290.472 74.84C291.229 74.84 291.896 75.0053 292.472 75.336C293.059 75.6667 293.517 76.1467 293.848 76.776C294.179 77.3947 294.344 78.136 294.344 79C294.344 79.864 294.179 80.6107 293.848 81.24C293.517 81.8587 293.059 82.3333 292.472 82.664C291.896 82.9947 291.229 83.16 290.472 83.16C289.725 83.16 289.059 82.9947 288.472 82.664C287.885 82.3333 287.427 81.8587 287.096 81.24C286.765 80.6107 286.6 79.864 286.6 79C286.6 78.136 286.765 77.3947 287.096 76.776C287.427 76.1467 287.885 75.6667 288.472 75.336C289.059 75.0053 289.725 74.84 290.472 74.84ZM290.472 75.944C289.661 75.944 289.027 76.216 288.568 76.76C288.109 77.304 287.88 78.0507 287.88 79C287.88 79.9493 288.109 80.696 288.568 81.24C289.027 81.784 289.661 82.056 290.472 82.056C291.283 82.056 291.917 81.784 292.376 81.24C292.835 80.696 293.064 79.9493 293.064 79C293.064 78.0507 292.835 77.304 292.376 76.76C291.917 76.216 291.283 75.944 290.472 75.944ZM296.754 83V75H297.874L297.954 76.248C298.231 75.7467 298.61 75.3893 299.09 75.176C299.57 74.952 300.087 74.84 300.642 74.84C301.218 74.84 301.74 74.952 302.21 75.176C302.679 75.3893 303.052 75.72 303.33 76.168C303.618 76.616 303.762 77.1867 303.762 77.88V83H302.482V78.328C302.482 77.4427 302.29 76.8293 301.906 76.488C301.532 76.136 301.068 75.96 300.514 75.96C300.13 75.96 299.746 76.0507 299.362 76.232C298.978 76.4133 298.658 76.7067 298.402 77.112C298.156 77.5173 298.034 78.0613 298.034 78.744V83H296.754ZM310.004 83.16C309.247 83.16 308.569 82.9947 307.972 82.664C307.385 82.3333 306.927 81.8587 306.596 81.24C306.265 80.6107 306.1 79.864 306.1 79C306.1 78.136 306.265 77.3947 306.596 76.776C306.927 76.1467 307.38 75.6667 307.956 75.336C308.532 75.0053 309.188 74.84 309.924 74.84C310.671 74.84 311.305 75 311.828 75.32C312.361 75.64 312.767 76.0773 313.044 76.632C313.321 77.176 313.46 77.7893 313.46 78.472C313.46 78.6533 313.455 78.8187 313.444 78.968C313.433 79.1173 313.417 79.2507 313.396 79.368H307.364C307.428 80.2107 307.689 80.8667 308.148 81.336C308.607 81.8053 309.215 82.04 309.972 82.04C310.559 82.04 311.033 81.928 311.396 81.704C311.769 81.48 312.068 81.176 312.292 80.792L313.3 81.384C313.001 81.928 312.569 82.36 312.004 82.68C311.449 83 310.783 83.16 310.004 83.16ZM309.892 75.96C309.22 75.96 308.665 76.1627 308.228 76.568C307.801 76.9627 307.529 77.5173 307.412 78.232H312.18C312.148 77.5067 311.924 76.9467 311.508 76.552C311.092 76.1573 310.553 75.96 309.892 75.96Z" fill="#FCFEFE"/>
<path d="M246 0H486C488.761 0 491 2.23858 491 5V50H246V0Z" fill="#1F2B6C"/>
<path d="M271.984 32.16C270.981 32.16 270.112 31.9413 269.376 31.504C268.651 31.056 268.085 30.4267 267.68 29.616C267.285 28.8053 267.088 27.84 267.088 26.72C267.088 25.6 267.296 24.6347 267.712 23.824C268.139 23.0133 268.731 22.3893 269.488 21.952C270.245 21.504 271.115 21.28 272.096 21.28C273.141 21.28 273.989 21.4773 274.64 21.872C275.301 22.2667 275.835 22.8747 276.24 23.696L275.072 24.336C274.837 23.728 274.464 23.2693 273.952 22.96C273.451 22.64 272.832 22.48 272.096 22.48C271.381 22.48 270.747 22.6507 270.192 22.992C269.648 23.3227 269.216 23.808 268.896 24.448C268.587 25.0773 268.432 25.8347 268.432 26.72C268.432 28.0427 268.736 29.0827 269.344 29.84C269.963 30.5867 270.859 30.96 272.032 30.96C272.619 30.96 273.147 30.864 273.616 30.672C274.085 30.4693 274.459 30.1653 274.736 29.76C275.013 29.3547 275.152 28.848 275.152 28.24V27.872H271.792V26.672H276.32V32H275.312L275.264 30.576C274.944 31.088 274.507 31.4827 273.952 31.76C273.408 32.0267 272.752 32.16 271.984 32.16ZM282.41 32.16C281.653 32.16 280.975 31.9947 280.378 31.664C279.791 31.3333 279.333 30.8587 279.002 30.24C278.671 29.6107 278.506 28.864 278.506 28C278.506 27.136 278.671 26.3947 279.002 25.776C279.333 25.1467 279.786 24.6667 280.362 24.336C280.938 24.0053 281.594 23.84 282.33 23.84C283.077 23.84 283.711 24 284.234 24.32C284.767 24.64 285.173 25.0773 285.45 25.632C285.727 26.176 285.866 26.7893 285.866 27.472C285.866 27.6533 285.861 27.8187 285.85 27.968C285.839 28.1173 285.823 28.2507 285.802 28.368H279.77C279.834 29.2107 280.095 29.8667 280.554 30.336C281.013 30.8053 281.621 31.04 282.378 31.04C282.965 31.04 283.439 30.928 283.802 30.704C284.175 30.48 284.474 30.176 284.698 29.792L285.706 30.384C285.407 30.928 284.975 31.36 284.41 31.68C283.855 32 283.189 32.16 282.41 32.16ZM282.298 24.96C281.626 24.96 281.071 25.1627 280.634 25.568C280.207 25.9627 279.935 26.5173 279.818 27.232H284.586C284.554 26.5067 284.33 25.9467 283.914 25.552C283.498 25.1573 282.959 24.96 282.298 24.96ZM288.301 32V24H289.421L289.501 25.248C289.778 24.7467 290.157 24.3893 290.637 24.176C291.117 23.952 291.634 23.84 292.189 23.84C292.765 23.84 293.287 23.952 293.757 24.176C294.226 24.3893 294.599 24.72 294.877 25.168C295.165 25.616 295.309 26.1867 295.309 26.88V32H294.029V27.328C294.029 26.4427 293.837 25.8293 293.453 25.488C293.079 25.136 292.615 24.96 292.061 24.96C291.677 24.96 291.293 25.0507 290.909 25.232C290.525 25.4133 290.205 25.7067 289.949 26.112C289.703 26.5173 289.581 27.0613 289.581 27.744V32H288.301ZM301.327 32.16C300.665 32.16 300.057 31.9947 299.503 31.664C298.948 31.3333 298.505 30.8587 298.175 30.24C297.844 29.6107 297.679 28.864 297.679 28C297.679 27.1147 297.855 26.3627 298.207 25.744C298.559 25.1253 299.023 24.656 299.599 24.336C300.175 24.0053 300.793 23.84 301.455 23.84C302.031 23.84 302.543 23.9733 302.991 24.24C303.439 24.496 303.769 24.848 303.983 25.296V20.32H305.263V32H304.143L304.063 30.496C303.839 31.04 303.476 31.456 302.975 31.744C302.473 32.0213 301.924 32.16 301.327 32.16ZM301.455 31.04C302.212 31.04 302.82 30.7573 303.279 30.192C303.748 29.6267 303.983 28.8587 303.983 27.888C303.983 26.9707 303.753 26.256 303.295 25.744C302.836 25.2213 302.244 24.96 301.519 24.96C300.708 24.96 300.079 25.2373 299.631 25.792C299.183 26.3467 298.959 27.0827 298.959 28C298.959 28.9173 299.177 29.6533 299.615 30.208C300.052 30.7627 300.665 31.04 301.455 31.04ZM311.582 32.16C310.825 32.16 310.147 31.9947 309.55 31.664C308.963 31.3333 308.505 30.8587 308.174 30.24C307.843 29.6107 307.678 28.864 307.678 28C307.678 27.136 307.843 26.3947 308.174 25.776C308.505 25.1467 308.958 24.6667 309.534 24.336C310.11 24.0053 310.766 23.84 311.502 23.84C312.249 23.84 312.883 24 313.406 24.32C313.939 24.64 314.345 25.0773 314.622 25.632C314.899 26.176 315.038 26.7893 315.038 27.472C315.038 27.6533 315.033 27.8187 315.022 27.968C315.011 28.1173 314.995 28.2507 314.974 28.368H308.942C309.006 29.2107 309.267 29.8667 309.726 30.336C310.185 30.8053 310.793 31.04 311.55 31.04C312.137 31.04 312.611 30.928 312.974 30.704C313.347 30.48 313.646 30.176 313.87 29.792L314.878 30.384C314.579 30.928 314.147 31.36 313.582 31.68C313.027 32 312.361 32.16 311.582 32.16ZM311.47 24.96C310.798 24.96 310.243 25.1627 309.806 25.568C309.379 25.9627 309.107 26.5173 308.99 27.232H313.758C313.726 26.5067 313.502 25.9467 313.086 25.552C312.67 25.1573 312.131 24.96 311.47 24.96ZM317.472 32V24H318.512L318.688 25.312C319.136 24.3307 319.99 23.84 321.248 23.84C321.387 23.84 321.536 23.8507 321.696 23.872C321.867 23.8933 322.011 23.936 322.128 24L321.904 25.168C321.787 25.1253 321.659 25.0933 321.52 25.072C321.382 25.0507 321.184 25.04 320.928 25.04C320.598 25.04 320.262 25.136 319.92 25.328C319.59 25.52 319.312 25.8133 319.088 26.208C318.864 26.592 318.752 27.0827 318.752 27.68V32H317.472Z" fill="#FCFEFE"/>
<path d="M468.946 22.3498C469.173 22.1257 469.478 22 469.797 22C470.115 22 470.421 22.1257 470.647 22.3498C470.759 22.4598 470.848 22.591 470.908 22.7356C470.969 22.8803 471 23.0355 471 23.1923C471 23.3491 470.969 23.5044 470.908 23.649C470.848 23.7937 470.759 23.9248 470.647 24.0349L463.851 30.6952C463.624 30.919 463.319 31.0444 463 31.0444C462.681 31.0444 462.376 30.919 462.149 30.6952L455.353 24.0349C455.241 23.9248 455.152 23.7937 455.092 23.649C455.031 23.5044 455 23.3491 455 23.1923C455 23.0355 455.031 22.8803 455.092 22.7356C455.152 22.591 455.241 22.4598 455.353 22.3498C455.579 22.1257 455.885 22 456.203 22C456.522 22 456.827 22.1257 457.054 22.3498L463.003 27.8119L468.946 22.3498Z" fill="#BFD2F8"/>
<path d="M468.946 22.3498C469.173 22.1257 469.478 22 469.797 22C470.115 22 470.421 22.1257 470.647 22.3498C470.759 22.4598 470.848 22.591 470.908 22.7356C470.969 22.8803 471 23.0355 471 23.1923C471 23.3491 470.969 23.5044 470.908 23.649C470.848 23.7937 470.759 23.9248 470.647 24.0349L463.851 30.6952C463.624 30.919 463.319 31.0444 463 31.0444C462.681 31.0444 462.376 30.919 462.149 30.6952L455.353 24.0349C455.241 23.9248 455.152 23.7937 455.092 23.649C455.031 23.5044 455 23.3491 455 23.1923C455 23.0355 455.031 22.8803 455.092 22.7356C455.152 22.591 455.241 22.4598 455.353 22.3498C455.579 22.1257 455.885 22 456.203 22C456.522 22 456.827 22.1257 457.054 22.3498L463.003 27.8119L468.946 22.3498Z" fill="black" fill-opacity="0.2"/>
<rect y="102" width="245" height="50" fill="#1F2B6C"/>
<path d="M25.136 123.44C26.7893 123.44 28.0853 123.899 29.024 124.816C29.9733 125.723 30.448 127.024 30.448 128.72C30.448 130.416 29.9733 131.723 29.024 132.64C28.0853 133.547 26.7893 134 25.136 134H21.728V123.44H25.136ZM25.264 132.8C26.4693 132.8 27.408 132.443 28.08 131.728C28.7627 131.003 29.104 130 29.104 128.72C29.104 127.44 28.7627 126.443 28.08 125.728C27.408 125.003 26.4693 124.64 25.264 124.64H23.008V132.8H25.264ZM37.6913 128.832C37.6913 128.235 37.5313 127.776 37.2113 127.456C36.8913 127.125 36.4379 126.96 35.8513 126.96C35.2966 126.96 34.8273 127.083 34.4433 127.328C34.0593 127.563 33.7766 127.947 33.5953 128.48L32.5553 127.84C32.7686 127.243 33.1633 126.763 33.7393 126.4C34.3153 126.027 35.0299 125.84 35.8833 125.84C36.4593 125.84 36.9819 125.941 37.4513 126.144C37.9206 126.336 38.2886 126.635 38.5553 127.04C38.8326 127.435 38.9713 127.947 38.9713 128.576V132.448C38.9713 132.832 39.1739 133.024 39.5793 133.024C39.7819 133.024 39.9793 132.997 40.1713 132.944L40.1073 133.952C39.8939 134.059 39.6166 134.112 39.2753 134.112C38.8806 134.112 38.5393 134.016 38.2513 133.824C37.9739 133.632 37.7926 133.339 37.7073 132.944C37.4299 133.36 37.0513 133.669 36.5713 133.872C36.0913 134.064 35.6166 134.16 35.1473 134.16C34.6779 134.16 34.2406 134.08 33.8353 133.92C33.4299 133.76 33.1046 133.52 32.8593 133.2C32.6246 132.869 32.5073 132.464 32.5073 131.984C32.5073 131.387 32.7046 130.896 33.0993 130.512C33.5046 130.117 34.0646 129.851 34.7793 129.712L37.6913 129.136V128.832ZM33.8193 131.92C33.8193 132.251 33.9473 132.523 34.2033 132.736C34.4699 132.939 34.8433 133.04 35.3233 133.04C35.7393 133.04 36.1233 132.971 36.4753 132.832C36.8379 132.683 37.1313 132.464 37.3553 132.176C37.5793 131.877 37.6913 131.499 37.6913 131.04V130.192L35.3713 130.672C34.8486 130.779 34.4593 130.928 34.2033 131.12C33.9473 131.312 33.8193 131.579 33.8193 131.92ZM46.5693 126V127.104H43.6573V131.792C43.6573 132.187 43.7693 132.48 43.9933 132.672C44.2173 132.864 44.5053 132.96 44.8573 132.96C45.1666 132.96 45.4333 132.907 45.6573 132.8C45.8813 132.693 46.0839 132.549 46.2653 132.368L46.7133 133.44C46.4679 133.664 46.1746 133.84 45.8333 133.968C45.5026 134.096 45.1186 134.16 44.6813 134.16C44.2759 134.16 43.8973 134.091 43.5453 133.952C43.1933 133.803 42.9106 133.573 42.6973 133.264C42.4946 132.944 42.3879 132.528 42.3773 132.016V127.104H40.7773V126H42.3773V124.08L43.6573 123.728V126H46.5693ZM51.8164 134.16C51.059 134.16 50.3817 133.995 49.7844 133.664C49.1977 133.333 48.739 132.859 48.4084 132.24C48.0777 131.611 47.9124 130.864 47.9124 130C47.9124 129.136 48.0777 128.395 48.4084 127.776C48.739 127.147 49.1924 126.667 49.7684 126.336C50.3444 126.005 51.0004 125.84 51.7364 125.84C52.483 125.84 53.1177 126 53.6404 126.32C54.1737 126.64 54.579 127.077 54.8564 127.632C55.1337 128.176 55.2724 128.789 55.2724 129.472C55.2724 129.653 55.267 129.819 55.2564 129.968C55.2457 130.117 55.2297 130.251 55.2084 130.368H49.1764C49.2404 131.211 49.5017 131.867 49.9604 132.336C50.419 132.805 51.027 133.04 51.7844 133.04C52.371 133.04 52.8457 132.928 53.2084 132.704C53.5817 132.48 53.8804 132.176 54.1044 131.792L55.1124 132.384C54.8137 132.928 54.3817 133.36 53.8164 133.68C53.2617 134 52.595 134.16 51.8164 134.16ZM51.7044 126.96C51.0324 126.96 50.4777 127.163 50.0404 127.568C49.6137 127.963 49.3417 128.517 49.2244 129.232H53.9924C53.9604 128.507 53.7364 127.947 53.3204 127.552C52.9044 127.157 52.3657 126.96 51.7044 126.96Z" fill="#FCFEFE"/>
<path d="M222.946 122.35C223.173 122.126 223.478 122 223.797 122C224.115 122 224.421 122.126 224.647 122.35C224.759 122.46 224.848 122.591 224.908 122.736C224.969 122.88 225 123.035 225 123.192C225 123.349 224.969 123.504 224.908 123.649C224.848 123.794 224.759 123.925 224.647 124.035L217.851 130.695C217.624 130.919 217.319 131.044 217 131.044C216.681 131.044 216.376 130.919 216.149 130.695L209.353 124.035C209.241 123.925 209.152 123.794 209.092 123.649C209.031 123.504 209 123.349 209 123.192C209 123.035 209.031 122.88 209.092 122.736C209.152 122.591 209.241 122.46 209.353 122.35C209.579 122.126 209.885 122 210.203 122C210.522 122 210.827 122.126 211.054 122.35L217.003 127.812L222.946 122.35Z" fill="#BFD2F8"/>
<path d="M222.946 122.35C223.173 122.126 223.478 122 223.797 122C224.115 122 224.421 122.126 224.647 122.35C224.759 122.46 224.848 122.591 224.908 122.736C224.969 122.88 225 123.035 225 123.192C225 123.349 224.969 123.504 224.908 123.649C224.848 123.794 224.759 123.925 224.647 124.035L217.851 130.695C217.624 130.919 217.319 131.044 217 131.044C216.681 131.044 216.376 130.919 216.149 130.695L209.353 124.035C209.241 123.925 209.152 123.794 209.092 123.649C209.031 123.504 209 123.349 209 123.192C209 123.035 209.031 122.88 209.092 122.736C209.152 122.591 209.241 122.46 209.353 122.35C209.579 122.126 209.885 122 210.203 122C210.522 122 210.827 122.126 211.054 122.35L217.003 127.812L222.946 122.35Z" fill="black" fill-opacity="0.2"/>
<rect x="246" y="102" width="245" height="50" fill="#1F2B6C"/>
<path d="M275.152 123.44V124.64H271.472V134H270.192V124.64H266.512V123.44H275.152ZM277.534 124.464C277.246 124.464 277.012 124.379 276.83 124.208C276.66 124.027 276.574 123.792 276.574 123.504C276.574 123.216 276.66 122.987 276.83 122.816C277.012 122.635 277.246 122.544 277.534 122.544C277.822 122.544 278.052 122.635 278.222 122.816C278.404 122.987 278.494 123.216 278.494 123.504C278.494 123.792 278.404 124.027 278.222 124.208C278.052 124.379 277.822 124.464 277.534 124.464ZM278.174 126V134H276.894V126H278.174ZM281.144 134V126H282.264L282.344 127.248C282.632 126.757 283.006 126.4 283.464 126.176C283.934 125.952 284.414 125.84 284.904 125.84C285.47 125.84 286.003 125.968 286.504 126.224C287.006 126.48 287.39 126.875 287.656 127.408C287.827 127.045 288.067 126.752 288.376 126.528C288.686 126.293 289.022 126.123 289.384 126.016C289.758 125.899 290.11 125.84 290.44 125.84C290.952 125.84 291.438 125.947 291.896 126.16C292.366 126.373 292.75 126.704 293.048 127.152C293.347 127.6 293.496 128.176 293.496 128.88V134H292.216V129.008C292.216 128.283 292.035 127.76 291.672 127.44C291.31 127.12 290.862 126.96 290.328 126.96C289.912 126.96 289.523 127.061 289.16 127.264C288.798 127.467 288.504 127.765 288.28 128.16C288.067 128.555 287.96 129.04 287.96 129.616V134H286.68V129.008C286.68 128.283 286.499 127.76 286.136 127.44C285.774 127.12 285.326 126.96 284.792 126.96C284.44 126.96 284.078 127.056 283.704 127.248C283.342 127.429 283.038 127.723 282.792 128.128C282.547 128.533 282.424 129.067 282.424 129.728V134H281.144ZM299.738 134.16C298.981 134.16 298.304 133.995 297.706 133.664C297.12 133.333 296.661 132.859 296.33 132.24C296 131.611 295.834 130.864 295.834 130C295.834 129.136 296 128.395 296.33 127.776C296.661 127.147 297.114 126.667 297.69 126.336C298.266 126.005 298.922 125.84 299.658 125.84C300.405 125.84 301.04 126 301.562 126.32C302.096 126.64 302.501 127.077 302.778 127.632C303.056 128.176 303.194 128.789 303.194 129.472C303.194 129.653 303.189 129.819 303.178 129.968C303.168 130.117 303.152 130.251 303.13 130.368H297.098C297.162 131.211 297.424 131.867 297.882 132.336C298.341 132.805 298.949 133.04 299.706 133.04C300.293 133.04 300.768 132.928 301.13 132.704C301.504 132.48 301.802 132.176 302.026 131.792L303.034 132.384C302.736 132.928 302.304 133.36 301.738 133.68C301.184 134 300.517 134.16 299.738 134.16ZM299.626 126.96C298.954 126.96 298.4 127.163 297.962 127.568C297.536 127.963 297.264 128.517 297.146 129.232H301.914C301.882 128.507 301.658 127.947 301.242 127.552C300.826 127.157 300.288 126.96 299.626 126.96Z" fill="#FCFEFE"/>
<path d="M468.946 122.35C469.173 122.126 469.478 122 469.797 122C470.115 122 470.421 122.126 470.647 122.35C470.759 122.46 470.848 122.591 470.908 122.736C470.969 122.88 471 123.035 471 123.192C471 123.349 470.969 123.504 470.908 123.649C470.848 123.794 470.759 123.925 470.647 124.035L463.851 130.695C463.624 130.919 463.319 131.044 463 131.044C462.681 131.044 462.376 130.919 462.149 130.695L455.353 124.035C455.241 123.925 455.152 123.794 455.092 123.649C455.031 123.504 455 123.349 455 123.192C455 123.035 455.031 122.88 455.092 122.736C455.152 122.591 455.241 122.46 455.353 122.35C455.579 122.126 455.885 122 456.203 122C456.522 122 456.827 122.126 457.054 122.35L463.003 127.812L468.946 122.35Z" fill="#BFD2F8"/>
<path d="M468.946 122.35C469.173 122.126 469.478 122 469.797 122C470.115 122 470.421 122.126 470.647 122.35C470.759 122.46 470.848 122.591 470.908 122.736C470.969 122.88 471 123.035 471 123.192C471 123.349 470.969 123.504 470.908 123.649C470.848 123.794 470.759 123.925 470.647 124.035L463.851 130.695C463.624 130.919 463.319 131.044 463 131.044C462.681 131.044 462.376 130.919 462.149 130.695L455.353 124.035C455.241 123.925 455.152 123.794 455.092 123.649C455.031 123.504 455 123.349 455 123.192C455 123.035 455.031 122.88 455.092 122.736C455.152 122.591 455.241 122.46 455.353 122.35C455.579 122.126 455.885 122 456.203 122C456.522 122 456.827 122.126 457.054 122.35L463.003 127.812L468.946 122.35Z" fill="black" fill-opacity="0.2"/>
<rect y="153" width="245" height="50" fill="#1F2B6C"/>
<path d="M25.136 174.44C26.7893 174.44 28.0853 174.899 29.024 175.816C29.9733 176.723 30.448 178.024 30.448 179.72C30.448 181.416 29.9733 182.723 29.024 183.64C28.0853 184.547 26.7893 185 25.136 185H21.728V174.44H25.136ZM25.264 183.8C26.4693 183.8 27.408 183.443 28.08 182.728C28.7627 182.003 29.104 181 29.104 179.72C29.104 178.44 28.7627 177.443 28.08 176.728C27.408 176.003 26.4693 175.64 25.264 175.64H23.008V183.8H25.264ZM36.3313 176.84C37.0886 176.84 37.7553 177.005 38.3313 177.336C38.9179 177.667 39.3766 178.147 39.7073 178.776C40.0379 179.395 40.2033 180.136 40.2033 181C40.2033 181.864 40.0379 182.611 39.7073 183.24C39.3766 183.859 38.9179 184.333 38.3313 184.664C37.7553 184.995 37.0886 185.16 36.3313 185.16C35.5846 185.16 34.9179 184.995 34.3313 184.664C33.7446 184.333 33.2859 183.859 32.9553 183.24C32.6246 182.611 32.4593 181.864 32.4593 181C32.4593 180.136 32.6246 179.395 32.9553 178.776C33.2859 178.147 33.7446 177.667 34.3313 177.336C34.9179 177.005 35.5846 176.84 36.3313 176.84ZM36.3313 177.944C35.5206 177.944 34.8859 178.216 34.4273 178.76C33.9686 179.304 33.7393 180.051 33.7393 181C33.7393 181.949 33.9686 182.696 34.4273 183.24C34.8859 183.784 35.5206 184.056 36.3313 184.056C37.1419 184.056 37.7766 183.784 38.2353 183.24C38.6939 182.696 38.9233 181.949 38.9233 181C38.9233 180.051 38.6939 179.304 38.2353 178.76C37.7766 178.216 37.1419 177.944 36.3313 177.944ZM45.925 176.84C46.7463 176.84 47.429 177.032 47.973 177.416C48.517 177.789 48.9383 178.307 49.237 178.968L48.021 179.544C47.8503 179.032 47.589 178.643 47.237 178.376C46.8957 178.099 46.4477 177.96 45.893 177.96C45.093 177.96 44.4637 178.232 44.005 178.776C43.557 179.309 43.333 180.051 43.333 181C43.333 181.949 43.557 182.696 44.005 183.24C44.4637 183.773 45.093 184.04 45.893 184.04C46.5223 184.04 47.0237 183.896 47.397 183.608C47.7703 183.32 48.0157 182.915 48.133 182.392L49.317 182.808C49.0503 183.544 48.629 184.12 48.053 184.536C47.4877 184.952 46.7783 185.16 45.925 185.16C45.1783 185.16 44.5117 184.995 43.925 184.664C43.3383 184.333 42.8797 183.859 42.549 183.24C42.2183 182.611 42.053 181.864 42.053 181C42.053 180.136 42.2183 179.395 42.549 178.776C42.8797 178.147 43.3383 177.667 43.925 177.336C44.5117 177.005 45.1783 176.84 45.925 176.84ZM56.3661 177V178.104H53.4541V182.792C53.4541 183.187 53.5661 183.48 53.7901 183.672C54.0141 183.864 54.3021 183.96 54.6541 183.96C54.9635 183.96 55.2301 183.907 55.4541 183.8C55.6781 183.693 55.8808 183.549 56.0621 183.368L56.5101 184.44C56.2648 184.664 55.9715 184.84 55.6301 184.968C55.2995 185.096 54.9155 185.16 54.4781 185.16C54.0728 185.16 53.6941 185.091 53.3421 184.952C52.9901 184.803 52.7075 184.573 52.4941 184.264C52.2915 183.944 52.1848 183.528 52.1741 183.016V178.104H50.5741V177H52.1741V175.08L53.4541 174.728V177H56.3661ZM61.5813 176.84C62.3386 176.84 63.0053 177.005 63.5813 177.336C64.1679 177.667 64.6266 178.147 64.9573 178.776C65.2879 179.395 65.4533 180.136 65.4533 181C65.4533 181.864 65.2879 182.611 64.9573 183.24C64.6266 183.859 64.1679 184.333 63.5813 184.664C63.0053 184.995 62.3386 185.16 61.5813 185.16C60.8346 185.16 60.1679 184.995 59.5813 184.664C58.9946 184.333 58.5359 183.859 58.2053 183.24C57.8746 182.611 57.7093 181.864 57.7093 181C57.7093 180.136 57.8746 179.395 58.2053 178.776C58.5359 178.147 58.9946 177.667 59.5813 177.336C60.1679 177.005 60.8346 176.84 61.5813 176.84ZM61.5813 177.944C60.7706 177.944 60.1359 178.216 59.6773 178.76C59.2186 179.304 58.9893 180.051 58.9893 181C58.9893 181.949 59.2186 182.696 59.6773 183.24C60.1359 183.784 60.7706 184.056 61.5813 184.056C62.3919 184.056 63.0266 183.784 63.4853 183.24C63.9439 182.696 64.1733 181.949 64.1733 181C64.1733 180.051 63.9439 179.304 63.4853 178.76C63.0266 178.216 62.3919 177.944 61.5813 177.944ZM67.863 185V177H68.903L69.079 178.312C69.527 177.331 70.3803 176.84 71.639 176.84C71.7777 176.84 71.927 176.851 72.087 176.872C72.2577 176.893 72.4017 176.936 72.519 177L72.295 178.168C72.1777 178.125 72.0497 178.093 71.911 178.072C71.7723 178.051 71.575 178.04 71.319 178.04C70.9883 178.04 70.6523 178.136 70.311 178.328C69.9803 178.52 69.703 178.813 69.479 179.208C69.255 179.592 69.143 180.083 69.143 180.68V185H67.863Z" fill="#FCFEFE"/>
<path d="M222.946 173.35C223.173 173.126 223.478 173 223.797 173C224.115 173 224.421 173.126 224.647 173.35C224.759 173.46 224.848 173.591 224.908 173.736C224.969 173.88 225 174.035 225 174.192C225 174.349 224.969 174.504 224.908 174.649C224.848 174.794 224.759 174.925 224.647 175.035L217.851 181.695C217.624 181.919 217.319 182.044 217 182.044C216.681 182.044 216.376 181.919 216.149 181.695L209.353 175.035C209.241 174.925 209.152 174.794 209.092 174.649C209.031 174.504 209 174.349 209 174.192C209 174.035 209.031 173.88 209.092 173.736C209.152 173.591 209.241 173.46 209.353 173.35C209.579 173.126 209.885 173 210.203 173C210.522 173 210.827 173.126 211.054 173.35L217.003 178.812L222.946 173.35Z" fill="#BFD2F8"/>
<path d="M222.946 173.35C223.173 173.126 223.478 173 223.797 173C224.115 173 224.421 173.126 224.647 173.35C224.759 173.46 224.848 173.591 224.908 173.736C224.969 173.88 225 174.035 225 174.192C225 174.349 224.969 174.504 224.908 174.649C224.848 174.794 224.759 174.925 224.647 175.035L217.851 181.695C217.624 181.919 217.319 182.044 217 182.044C216.681 182.044 216.376 181.919 216.149 181.695L209.353 175.035C209.241 174.925 209.152 174.794 209.092 174.649C209.031 174.504 209 174.349 209 174.192C209 174.035 209.031 173.88 209.092 173.736C209.152 173.591 209.241 173.46 209.353 173.35C209.579 173.126 209.885 173 210.203 173C210.522 173 210.827 173.126 211.054 173.35L217.003 178.812L222.946 173.35Z" fill="black" fill-opacity="0.2"/>
<rect x="246" y="153" width="245" height="50" fill="#1F2B6C"/>
<path d="M271.136 174.44C272.789 174.44 274.085 174.899 275.024 175.816C275.973 176.723 276.448 178.024 276.448 179.72C276.448 181.416 275.973 182.723 275.024 183.64C274.085 184.547 272.789 185 271.136 185H267.728V174.44H271.136ZM271.264 183.8C272.469 183.8 273.408 183.443 274.08 182.728C274.763 182.003 275.104 181 275.104 179.72C275.104 178.44 274.763 177.443 274.08 176.728C273.408 176.003 272.469 175.64 271.264 175.64H269.008V183.8H271.264ZM282.363 185.16C281.606 185.16 280.929 184.995 280.331 184.664C279.745 184.333 279.286 183.859 278.955 183.24C278.625 182.611 278.459 181.864 278.459 181C278.459 180.136 278.625 179.395 278.955 178.776C279.286 178.147 279.739 177.667 280.315 177.336C280.891 177.005 281.547 176.84 282.283 176.84C283.03 176.84 283.665 177 284.187 177.32C284.721 177.64 285.126 178.077 285.403 178.632C285.681 179.176 285.819 179.789 285.819 180.472C285.819 180.653 285.814 180.819 285.803 180.968C285.793 181.117 285.777 181.251 285.755 181.368H279.723C279.787 182.211 280.049 182.867 280.507 183.336C280.966 183.805 281.574 184.04 282.331 184.04C282.918 184.04 283.393 183.928 283.755 183.704C284.129 183.48 284.427 183.176 284.651 182.792L285.659 183.384C285.361 183.928 284.929 184.36 284.363 184.68C283.809 185 283.142 185.16 282.363 185.16ZM282.251 177.96C281.579 177.96 281.025 178.163 280.587 178.568C280.161 178.963 279.889 179.517 279.771 180.232H284.539C284.507 179.507 284.283 178.947 283.867 178.552C283.451 178.157 282.913 177.96 282.251 177.96ZM288.254 188.36V177H289.374L289.454 178.408C289.699 177.939 290.062 177.56 290.542 177.272C291.032 176.984 291.592 176.84 292.222 176.84C292.872 176.84 293.47 177.005 294.014 177.336C294.568 177.667 295.011 178.141 295.342 178.76C295.672 179.379 295.838 180.125 295.838 181C295.838 181.864 295.667 182.611 295.326 183.24C294.995 183.859 294.552 184.333 293.998 184.664C293.443 184.995 292.835 185.16 292.174 185.16C291.576 185.16 291.048 185.032 290.59 184.776C290.131 184.509 289.779 184.168 289.534 183.752V188.36H288.254ZM292.046 184.04C292.835 184.04 293.448 183.763 293.886 183.208C294.334 182.653 294.558 181.917 294.558 181C294.558 180.083 294.339 179.347 293.902 178.792C293.475 178.237 292.872 177.96 292.094 177.96C291.326 177.96 290.707 178.237 290.238 178.792C289.768 179.347 289.534 180.083 289.534 181C289.534 181.917 289.763 182.653 290.222 183.208C290.68 183.763 291.288 184.04 292.046 184.04ZM302.957 179.832C302.957 179.235 302.797 178.776 302.477 178.456C302.157 178.125 301.704 177.96 301.117 177.96C300.562 177.96 300.093 178.083 299.709 178.328C299.325 178.563 299.042 178.947 298.861 179.48L297.821 178.84C298.034 178.243 298.429 177.763 299.005 177.4C299.581 177.027 300.296 176.84 301.149 176.84C301.725 176.84 302.248 176.941 302.717 177.144C303.186 177.336 303.554 177.635 303.821 178.04C304.098 178.435 304.237 178.947 304.237 179.576V183.448C304.237 183.832 304.44 184.024 304.845 184.024C305.048 184.024 305.245 183.997 305.437 183.944L305.373 184.952C305.16 185.059 304.882 185.112 304.541 185.112C304.146 185.112 303.805 185.016 303.517 184.824C303.24 184.632 303.058 184.339 302.973 183.944C302.696 184.36 302.317 184.669 301.837 184.872C301.357 185.064 300.882 185.16 300.413 185.16C299.944 185.16 299.506 185.08 299.101 184.92C298.696 184.76 298.37 184.52 298.125 184.2C297.89 183.869 297.773 183.464 297.773 182.984C297.773 182.387 297.97 181.896 298.365 181.512C298.77 181.117 299.33 180.851 300.045 180.712L302.957 180.136V179.832ZM299.085 182.92C299.085 183.251 299.213 183.523 299.469 183.736C299.736 183.939 300.109 184.04 300.589 184.04C301.005 184.04 301.389 183.971 301.741 183.832C302.104 183.683 302.397 183.464 302.621 183.176C302.845 182.877 302.957 182.499 302.957 182.04V181.192L300.637 181.672C300.114 181.779 299.725 181.928 299.469 182.12C299.213 182.312 299.085 182.579 299.085 182.92ZM307.347 185V177H308.387L308.563 178.312C309.011 177.331 309.865 176.84 311.123 176.84C311.262 176.84 311.411 176.851 311.571 176.872C311.742 176.893 311.886 176.936 312.003 177L311.779 178.168C311.662 178.125 311.534 178.093 311.395 178.072C311.257 178.051 311.059 178.04 310.803 178.04C310.473 178.04 310.137 178.136 309.795 178.328C309.465 178.52 309.187 178.813 308.963 179.208C308.739 179.592 308.627 180.083 308.627 180.68V185H307.347ZM318.194 177V178.104H315.282V182.792C315.282 183.187 315.394 183.48 315.618 183.672C315.842 183.864 316.13 183.96 316.482 183.96C316.792 183.96 317.058 183.907 317.282 183.8C317.506 183.693 317.709 183.549 317.89 183.368L318.338 184.44C318.093 184.664 317.8 184.84 317.458 184.968C317.128 185.096 316.744 185.16 316.306 185.16C315.901 185.16 315.522 185.091 315.17 184.952C314.818 184.803 314.536 184.573 314.322 184.264C314.12 183.944 314.013 183.528 314.002 183.016V178.104H312.402V177H314.002V175.08L315.282 174.728V177H318.194ZM320.097 185V177H321.217L321.297 178.248C321.585 177.757 321.959 177.4 322.417 177.176C322.887 176.952 323.367 176.84 323.857 176.84C324.423 176.84 324.956 176.968 325.457 177.224C325.959 177.48 326.343 177.875 326.609 178.408C326.78 178.045 327.02 177.752 327.329 177.528C327.639 177.293 327.975 177.123 328.337 177.016C328.711 176.899 329.063 176.84 329.393 176.84C329.905 176.84 330.391 176.947 330.849 177.16C331.319 177.373 331.703 177.704 332.001 178.152C332.3 178.6 332.449 179.176 332.449 179.88V185H331.169V180.008C331.169 179.283 330.988 178.76 330.625 178.44C330.263 178.12 329.815 177.96 329.281 177.96C328.865 177.96 328.476 178.061 328.113 178.264C327.751 178.467 327.457 178.765 327.233 179.16C327.02 179.555 326.913 180.04 326.913 180.616V185H325.633V180.008C325.633 179.283 325.452 178.76 325.089 178.44C324.727 178.12 324.279 177.96 323.745 177.96C323.393 177.96 323.031 178.056 322.657 178.248C322.295 178.429 321.991 178.723 321.745 179.128C321.5 179.533 321.377 180.067 321.377 180.728V185H320.097ZM338.691 185.16C337.934 185.16 337.257 184.995 336.659 184.664C336.073 184.333 335.614 183.859 335.283 183.24C334.953 182.611 334.787 181.864 334.787 181C334.787 180.136 334.953 179.395 335.283 178.776C335.614 178.147 336.067 177.667 336.643 177.336C337.219 177.005 337.875 176.84 338.611 176.84C339.358 176.84 339.993 177 340.515 177.32C341.049 177.64 341.454 178.077 341.731 178.632C342.009 179.176 342.147 179.789 342.147 180.472C342.147 180.653 342.142 180.819 342.131 180.968C342.121 181.117 342.105 181.251 342.083 181.368H336.051C336.115 182.211 336.377 182.867 336.835 183.336C337.294 183.805 337.902 184.04 338.659 184.04C339.246 184.04 339.721 183.928 340.083 183.704C340.457 183.48 340.755 183.176 340.979 182.792L341.987 183.384C341.689 183.928 341.257 184.36 340.691 184.68C340.137 185 339.47 185.16 338.691 185.16ZM338.579 177.96C337.907 177.96 337.353 178.163 336.915 178.568C336.489 178.963 336.217 179.517 336.099 180.232H340.867C340.835 179.507 340.611 178.947 340.195 178.552C339.779 178.157 339.241 177.96 338.579 177.96ZM344.582 185V177H345.702L345.782 178.248C346.059 177.747 346.438 177.389 346.918 177.176C347.398 176.952 347.915 176.84 348.47 176.84C349.046 176.84 349.568 176.952 350.038 177.176C350.507 177.389 350.88 177.72 351.158 178.168C351.446 178.616 351.59 179.187 351.59 179.88V185H350.31V180.328C350.31 179.443 350.118 178.829 349.734 178.488C349.36 178.136 348.896 177.96 348.342 177.96C347.958 177.96 347.574 178.051 347.19 178.232C346.806 178.413 346.486 178.707 346.23 179.112C345.984 179.517 345.862 180.061 345.862 180.744V185H344.582ZM359.179 177V178.104H356.267V182.792C356.267 183.187 356.379 183.48 356.603 183.672C356.827 183.864 357.115 183.96 357.467 183.96C357.776 183.96 358.043 183.907 358.267 183.8C358.491 183.693 358.693 183.549 358.875 183.368L359.323 184.44C359.077 184.664 358.784 184.84 358.443 184.968C358.112 185.096 357.728 185.16 357.291 185.16C356.885 185.16 356.507 185.091 356.155 184.952C355.803 184.803 355.52 184.573 355.307 184.264C355.104 183.944 354.997 183.528 354.987 183.016V178.104H353.387V177H354.987V175.08L356.267 174.728V177H359.179Z" fill="#FCFEFE"/>
<path d="M468.946 173.35C469.173 173.126 469.478 173 469.797 173C470.115 173 470.421 173.126 470.647 173.35C470.759 173.46 470.848 173.591 470.908 173.736C470.969 173.88 471 174.035 471 174.192C471 174.349 470.969 174.504 470.908 174.649C470.848 174.794 470.759 174.925 470.647 175.035L463.851 181.695C463.624 181.919 463.319 182.044 463 182.044C462.681 182.044 462.376 181.919 462.149 181.695L455.353 175.035C455.241 174.925 455.152 174.794 455.092 174.649C455.031 174.504 455 174.349 455 174.192C455 174.035 455.031 173.88 455.092 173.736C455.152 173.591 455.241 173.46 455.353 173.35C455.579 173.126 455.885 173 456.203 173C456.522 173 456.827 173.126 457.054 173.35L463.003 178.812L468.946 173.35Z" fill="#BFD2F8"/>
<path d="M468.946 173.35C469.173 173.126 469.478 173 469.797 173C470.115 173 470.421 173.126 470.647 173.35C470.759 173.46 470.848 173.591 470.908 173.736C470.969 173.88 471 174.035 471 174.192C471 174.349 470.969 174.504 470.908 174.649C470.848 174.794 470.759 174.925 470.647 175.035L463.851 181.695C463.624 181.919 463.319 182.044 463 182.044C462.681 182.044 462.376 181.919 462.149 181.695L455.353 175.035C455.241 174.925 455.152 174.794 455.092 174.649C455.031 174.504 455 174.349 455 174.192C455 174.035 455.031 173.88 455.092 173.736C455.152 173.591 455.241 173.46 455.353 173.35C455.579 173.126 455.885 173 456.203 173C456.522 173 456.827 173.126 457.054 173.35L463.003 178.812L468.946 173.35Z" fill="black" fill-opacity="0.2"/>
</svg>
